<svg xmlns="http://www.w3.org/2000/svg" xmlns:xlink="http://www.w3.org/1999/xlink" width="500" zoomAndPan="magnify"
     viewBox="0 0 375 374.999991" height="500" preserveAspectRatio="xMidYMid meet" version="1.0">
  <defs>
    <g/>
    <clipPath id="id1">
      <path d="M 65.21875 251 L 76 251 L 76 264.792969 L 65.21875 264.792969 Z M 65.21875 251 " clip-rule="nonzero"/>
    </clipPath>
    <clipPath id="id2">
      <path d="M 75 261 L 300 261 L 300 264.792969 L 75 264.792969 Z M 75 261 " clip-rule="nonzero"/>
    </clipPath>
    <clipPath id="id3">
      <path d="M 299 251 L 308.96875 251 L 308.96875 264.792969 L 299 264.792969 Z M 299 251 " clip-rule="nonzero"/>
    </clipPath>
    <clipPath id="id4">
      <path d="M 306 124 L 308.96875 124 L 308.96875 252 L 306 252 Z M 306 124 " clip-rule="nonzero"/>
    </clipPath>
    <clipPath id="id5">
      <path d="M 299 110.292969 L 308.96875 110.292969 L 308.96875 125 L 299 125 Z M 299 110.292969 "
            clip-rule="nonzero"/>
    </clipPath>
    <clipPath id="id6">
      <path d="M 75 110.292969 L 300 110.292969 L 300 114 L 75 114 Z M 75 110.292969 " clip-rule="nonzero"/>
    </clipPath>
    <clipPath id="id7">
      <path d="M 65.21875 124 L 68 124 L 68 252 L 65.21875 252 Z M 65.21875 124 " clip-rule="nonzero"/>
    </clipPath>
    <clipPath id="id8">
      <path d="M 65.21875 110.292969 L 76 110.292969 L 76 125 L 65.21875 125 Z M 65.21875 110.292969 "
            clip-rule="nonzero"/>
    </clipPath>
  </defs>
  <rect x="-37.5" width="450" fill="#ffffff" y="-37.499999" height="449.999989" fill-opacity="1"/>
  <rect x="-37.5" width="450" fill="#ffffff" y="-37.499999" height="449.999989" fill-opacity="1"/>
  <rect x="-37.5" width="450" fill="#ffffff" y="-37.499999" height="449.999989" fill-opacity="1"/>
  <rect x="-37.5" width="450" fill="#ffffff" y="-37.499999" height="449.999989" fill-opacity="1"/>
  <g clip-path="url(#id1)">
    <path fill="#000000"
          d="M 67.601562 261.71875 L 67.601562 251.546875 L 64.574219 251.546875 L 64.574219 264.746094 L 75.363281 264.746094 L 75.363281 261.71875 Z M 67.601562 261.71875 "
          fill-opacity="1" fill-rule="nonzero"/>
  </g>
  <g clip-path="url(#id2)">
    <path fill="#000000"
          d="M 75.363281 264.746094 L 75.363281 261.71875 L 299.328125 261.71875 L 299.328125 264.746094 Z M 75.363281 264.746094 "
          fill-opacity="1" fill-rule="nonzero"/>
  </g>
  <g clip-path="url(#id3)">
    <path fill="#000000"
          d="M 306.796875 261.71875 L 299.328125 261.71875 L 299.328125 264.746094 L 309.824219 264.746094 L 309.824219 251.546875 L 306.796875 251.546875 Z M 306.796875 261.71875 "
          fill-opacity="1" fill-rule="nonzero"/>
  </g>
  <g clip-path="url(#id4)">
    <path fill="#000000"
          d="M 306.796875 251.546875 L 306.796875 124.152344 L 309.824219 124.152344 L 309.824219 251.546875 Z M 306.796875 251.546875 "
          fill-opacity="1" fill-rule="nonzero"/>
  </g>
  <g clip-path="url(#id5)">
    <path fill="#000000"
          d="M 306.796875 113.371094 L 306.796875 124.152344 L 309.824219 124.152344 L 309.824219 110.339844 L 299.328125 110.339844 L 299.328125 113.371094 Z M 306.796875 113.371094 "
          fill-opacity="1" fill-rule="nonzero"/>
  </g>
  <g clip-path="url(#id6)">
    <path fill="#000000"
          d="M 75.363281 113.371094 L 75.363281 110.339844 L 299.328125 110.339844 L 299.328125 113.371094 Z M 75.363281 113.371094 "
          fill-opacity="1" fill-rule="nonzero"/>
  </g>
  <g clip-path="url(#id7)">
    <path fill="#000000"
          d="M 64.574219 251.546875 L 64.574219 124.152344 L 67.601562 124.152344 L 67.601562 251.546875 Z M 64.574219 251.546875 "
          fill-opacity="1" fill-rule="nonzero"/>
  </g>
  <g clip-path="url(#id8)">
    <path fill="#000000"
          d="M 67.601562 113.371094 L 75.363281 113.371094 L 75.363281 110.339844 L 64.574219 110.339844 L 64.574219 124.152344 L 67.601562 124.152344 Z M 67.601562 113.371094 "
          fill-opacity="1" fill-rule="nonzero"/>
  </g>
  <g fill="#000000" fill-opacity="1">
    <g transform="translate(128.869574, 193.642883)">
      <g>
        <path
          d="M 9.1875 -4.171875 L 3.78125 -4.171875 L 2.53125 0 L 0.46875 0 L 5.625 -16 L 7.34375 -16 L 12.515625 0 L 10.453125 0 Z M 4.3125 -5.90625 L 8.671875 -5.90625 L 6.484375 -13.1875 Z M 4.3125 -5.90625 "/>
      </g>
    </g>
  </g>
  <g fill="#000000" fill-opacity="1">
    <g transform="translate(145.885091, 193.642883)">
      <g>
        <path
          d="M 3.734375 -6.265625 L 3.734375 0 L 1.71875 0 L 1.71875 -16 L 6.828125 -16 C 8.304688 -16 9.472656 -15.550781 10.328125 -14.65625 C 11.179688 -13.769531 11.609375 -12.585938 11.609375 -11.109375 C 11.609375 -9.566406 11.203125 -8.378906 10.390625 -7.546875 C 9.578125 -6.722656 8.4375 -6.296875 6.96875 -6.265625 Z M 3.734375 -7.984375 L 6.828125 -7.984375 C 7.710938 -7.984375 8.394531 -8.25 8.875 -8.78125 C 9.351562 -9.320312 9.59375 -10.085938 9.59375 -11.078125 C 9.59375 -12.046875 9.347656 -12.816406 8.859375 -13.390625 C 8.367188 -13.972656 7.691406 -14.265625 6.828125 -14.265625 L 3.734375 -14.265625 Z M 3.734375 -7.984375 "/>
      </g>
    </g>
  </g>
  <g fill="#000000" fill-opacity="1">
    <g transform="translate(162.406222, 193.642883)">
      <g>
        <path
          d="M 12.1875 0 L 10.171875 0 L 10.171875 -7.390625 L 3.734375 -7.390625 L 3.734375 0 L 1.71875 0 L 1.71875 -16 L 3.734375 -16 L 3.734375 -9.125 L 10.171875 -9.125 L 10.171875 -16 L 12.1875 -16 Z M 12.1875 0 "/>
      </g>
    </g>
  </g>
  <g fill="#000000" fill-opacity="1">
    <g transform="translate(180.41051, 193.642883)">
      <g>
        <path
          d="M 6.5625 -6.46875 L 3.75 -6.46875 L 3.75 0 L 1.71875 0 L 1.71875 -16 L 6.203125 -16 C 7.773438 -16 8.960938 -15.585938 9.765625 -14.765625 C 10.566406 -13.953125 10.96875 -12.757812 10.96875 -11.1875 C 10.96875 -10.195312 10.75 -9.332031 10.3125 -8.59375 C 9.882812 -7.863281 9.269531 -7.3125 8.46875 -6.9375 L 11.5625 -0.125 L 11.5625 0 L 9.40625 0 Z M 3.75 -8.203125 L 6.1875 -8.203125 C 7.03125 -8.203125 7.703125 -8.472656 8.203125 -9.015625 C 8.703125 -9.554688 8.953125 -10.28125 8.953125 -11.1875 C 8.953125 -13.238281 8.019531 -14.265625 6.15625 -14.265625 L 3.75 -14.265625 Z M 3.75 -8.203125 "/>
      </g>
    </g>
  </g>
  <g fill="#000000" fill-opacity="1">
    <g transform="translate(196.404296, 193.642883)">
      <g>
        <path d="M 3.828125 0 L 1.8125 0 L 1.8125 -16 L 3.828125 -16 Z M 3.828125 0 "/>
      </g>
    </g>
  </g>
  <g fill="#000000" fill-opacity="1">
    <g transform="translate(206.080945, 193.642883)">
      <g>
        <path
          d="M 12.171875 0 L 10.15625 0 L 3.75 -12.328125 L 3.75 0 L 1.71875 0 L 1.71875 -16 L 3.75 -16 L 10.171875 -3.609375 L 10.171875 -16 L 12.171875 -16 Z M 12.171875 0 "/>
      </g>
    </g>
  </g>
  <g fill="#000000" fill-opacity="1">
    <g transform="translate(224.063257, 193.642883)">
      <g>
        <path d="M 3.828125 0 L 1.8125 0 L 1.8125 -16 L 3.828125 -16 Z M 3.828125 0 "/>
      </g>
    </g>
  </g>
  <g fill="#000000" fill-opacity="1">
    <g transform="translate(233.739905, 193.642883)">
      <g>
        <path
          d="M 6.21875 -9.859375 L 9.234375 -16 L 11.59375 -16 L 7.421875 -8.0625 L 11.671875 0 L 9.296875 0 L 6.21875 -6.234375 L 3.125 0 L 0.75 0 L 5.015625 -8.0625 L 0.828125 -16 L 3.1875 -16 Z M 6.21875 -9.859375 "/>
      </g>
    </g>
  </g>
  <g fill="#ffffff" fill-opacity="1">
    <g transform="translate(188.573284, 230.016225)">
      <g/>
    </g>
  </g>
</svg>
